<svg id="Layer_1" data-name="Layer 1" xmlns="http://www.w3.org/2000/svg" viewBox="0 0 800 800"><title>koro-pulse-brick-0</title><path d="M800.08,10.41c-4.16,0-4.16-5.33-8.32-5.33s-4.16,5.33-8.32,5.33-4.16-5.33-8.32-5.33-4.16,5.33-8.32,5.33-4.16-5.33-8.32-5.33-4.16,5.33-8.32,5.33S746,5.09,741.84,5.09s-4.16,5.33-8.32,5.33-4.16-5.33-8.32-5.33-4.16,5.33-8.32,5.33-4.16-5.33-8.32-5.33-4.16,5.33-8.32,5.33-4.16-5.33-8.32-5.33-4.16,5.33-8.32,5.33-4.16-5.33-8.32-5.33-4.16,5.33-8.32,5.33-4.16-5.33-8.32-5.33-4.16,5.33-8.32,5.33S646.16,5.09,642,5.09s-4.16,5.33-8.32,5.33-4.16-5.33-8.32-5.33-4.16,5.33-8.32,5.33-4.16-5.33-8.32-5.33-4.16,5.33-8.32,5.33H600c-4.16,0-4.16-5.33-8.32-5.33s-4.16,5.33-8.32,5.33S579.18,5.09,575,5.09s-4.16,5.33-8.32,5.33-4.16-5.33-8.32-5.33-4.16,5.33-8.32,5.33-4.16-5.33-8.32-5.33-4.16,5.33-8.32,5.33-4.16-5.33-8.32-5.33-4.16,5.33-8.32,5.33-4.16-5.33-8.32-5.33-4.16,5.33-8.32,5.33S496,5.09,491.82,5.09s-4.16,5.33-8.32,5.33-4.16-5.33-8.32-5.33-4.16,5.33-8.32,5.33-4.16-5.33-8.32-5.33-4.16,5.33-8.32,5.33-4.16-5.33-8.32-5.33-4.16,5.33-8.32,5.33-4.16-5.33-8.32-5.33-4.16,5.33-8.32,5.33-4.16-5.33-8.32-5.33-4.16,5.33-8.32,5.33h0c-4.16,0-4.16-5.33-8.32-5.33s-4.16,5.33-8.32,5.33-4.16-5.33-8.32-5.33-4.16,5.33-8.32,5.33-4.16-5.33-8.32-5.33-4.16,5.33-8.32,5.33S346.2,5.09,342,5.09s-4.16,5.33-8.32,5.33-4.16-5.33-8.32-5.33-4.16,5.33-8.32,5.33-4.16-5.33-8.32-5.33-4.16,5.33-8.32,5.33-4.16-5.33-8.32-5.33-4.16,5.33-8.32,5.33-4.16-5.33-8.32-5.33-4.16,5.33-8.32,5.33S263,5.09,258.84,5.09s-4.16,5.33-8.32,5.33-4.16-5.33-8.32-5.33-4.16,5.33-8.32,5.33-4.16-5.33-8.32-5.33-4.16,5.33-8.32,5.33-4.16-5.33-8.32-5.33-4.16,5.33-8.32,5.33h-.42c-4.16,0-4.16-5.33-8.32-5.33s-4.16,5.33-8.32,5.33-4.16-5.33-8.32-5.33-4.16,5.33-8.32,5.33-4.16-5.33-8.32-5.33-4.16,5.33-8.32,5.33-4.16-5.33-8.32-5.33-4.16,5.33-8.32,5.33-4.16-5.33-8.32-5.33-4.16,5.33-8.32,5.33-4.16-5.33-8.32-5.33-4.16,5.33-8.32,5.33S96.18,5.09,92,5.09s-4.16,5.33-8.32,5.33-4.16-5.33-8.32-5.33-4.16,5.33-8.32,5.33S62.9,5.09,58.74,5.09s-4.16,5.33-8.32,5.33S46.26,5.09,42.1,5.09s-4.16,5.33-8.32,5.33-4.16-5.33-8.32-5.33-4.16,5.33-8.32,5.33S13,5.09,8.82,5.09,4.66,10.41.5,10.41H.84V800.29H800.5V10.41Z" fill="#dc2415"/></svg>