<svg id="Layer_1" data-name="Layer 1" xmlns="http://www.w3.org/2000/svg" viewBox="0 0 800 800"><title>koro-pulse-brick-145</title><path d="M799.66,799.66l.34.34c-4.16-4.16-9.49,1.17-13.65-3s1.17-9.49-3-13.65-9.49,1.17-13.65-3,1.17-9.49-3-13.65-9.49,1.17-13.65-3,1.17-9.49-3-13.65-9.49,1.17-13.65-3,1.17-9.49-3-13.65-9.49,1.17-13.65-3,1.17-9.49-3-13.65-9.49,1.17-13.65-3,1.17-9.49-3-13.65-9.49,1.17-13.65-3,1.17-9.49-3-13.65-9.49,1.17-13.65-3,1.17-9.49-3-13.65-9.49,1.17-13.65-3,1.17-9.49-3-13.65-9.49,1.17-13.65-3,1.17-9.49-3-13.65-9.49,1.17-13.65-3,1.17-9.49-3-13.65-9.49,1.17-13.65-3,1.17-9.49-3-13.65l-.42-.42c-4.16-4.16-9.49,1.17-13.65-3s1.17-9.49-3-13.65-9.49,1.17-13.65-3,1.17-9.49-3-13.65-9.49,1.17-13.65-3,1.17-9.49-3-13.65-9.49,1.17-13.65-3,1.17-9.49-3-13.65-9.49,1.17-13.65-3,1.17-9.49-3-13.65-9.49,1.17-13.65-3,1.17-9.49-3-13.64-9.49,1.17-13.65-3,1.17-9.49-3-13.65-9.49,1.17-13.65-3,1.17-9.49-3-13.65-9.49,1.17-13.65-3,1.17-9.49-3-13.65-9.49,1.17-13.65-3,1.17-9.49-3-13.65-9.49,1.17-13.65-3,1.17-9.49-3-13.65-9.49,1.17-13.65-3,1.17-9.49-3-13.65l0,0c-4.16-4.16-9.49,1.17-13.65-3s1.17-9.49-3-13.65-9.49,1.17-13.65-3,1.17-9.49-3-13.65-9.49,1.17-13.65-3,1.17-9.49-3-13.65-9.49,1.17-13.65-3,1.17-9.49-3-13.65-9.49,1.17-13.65-3,1.17-9.49-3-13.65-9.49,1.17-13.65-3,1.17-9.49-3-13.65-9.49,1.17-13.65-3,1.17-9.49-3-13.65-9.49,1.17-13.65-3,1.17-9.49-3-13.65-9.49,1.17-13.65-3,1.17-9.49-3-13.65-9.49,1.17-13.65-3,1.17-9.49-3-13.65-9.49,1.17-13.65-3,1.17-9.49-3-13.65-9.49,1.17-13.65-3,1.17-9.49-3-13.65l-.42-.42c-4.16-4.16-9.49,1.17-13.65-3s1.17-9.49-3-13.65-9.49,1.17-13.65-3,1.17-9.49-3-13.65-9.49,1.17-13.65-3,1.17-9.49-3-13.65-9.49,1.17-13.65-3,1.17-9.49-3-13.65-9.49,1.17-13.65-3,1.17-9.49-3-13.65-9.49,1.17-13.65-3,1.17-9.49-3-13.64-9.49,1.17-13.65-3,1.17-9.49-3-13.65-9.49,1.17-13.65-3S71.14,71.14,67,67s-9.49,1.17-13.65-3,1.17-9.49-3-13.65-9.49,1.17-13.65-3,1.17-9.49-3-13.65-9.49,1.17-13.65-3,1.17-9.49-3-13.65-9.49,1.17-13.65-3S4.58,4.58.42.42L0,0H800Z" fill="#dc2415"/></svg>