<?xml version="1.0" encoding="utf-8"?>
<!-- Generator: Adobe Illustrator 21.0.2, SVG Export Plug-In . SVG Version: 6.00 Build 0)  -->
<svg version="1.1" id="Layer_1" xmlns="http://www.w3.org/2000/svg" xmlns:xlink="http://www.w3.org/1999/xlink" x="0px" y="0px"
	 viewBox="0 0 800 800" style="enable-background:new 0 0 800 800;" xml:space="preserve">
<style type="text/css">
	.st0{fill:#DC2415;}
</style>
<path class="st0" d="M800,800L799.8,5.5L799.3,6c-4.1,4.1-9.4-1.2-13.6,3c-4.1,4.1,1.2,9.4-3,13.6c-4.1,4.1-9.4-1.2-13.6,3
	c-4.1,4.1,1.2,9.4-3,13.6c-4.1,4.1-9.4-1.2-13.6,3c-4.1,4.1,1.2,9.4-3,13.6c-4.1,4.1-9.4-1.2-13.6,3c-4.1,4.1,1.2,9.4-3,13.6
	c-4.1,4.1-9.4-1.2-13.6,3c-4.1,4.1,1.2,9.4-3,13.6c-4.1,4.1-9.4-1.2-13.6,3c-4.1,4.1,1.2,9.4-3,13.6c-4.1,4.1-9.4-1.2-13.6,3
	c-4.1,4.1,1.2,9.4-3,13.6c-4.1,4.1-9.4-1.2-13.6,3c-4.1,4.1,1.2,9.4-3,13.6c-4.1,4.1-9.4-1.2-13.6,3c-4.1,4.1,1.2,9.4-3,13.6
	c-4.1,4.1-9.4-1.2-13.6,3c-4.1,4.1,1.2,9.4-3,13.6c-4.1,4.1-9.4-1.2-13.6,3c-4.1,4.1,1.2,9.4-3,13.6c-4.1,4.1-9.4-1.2-13.6,3
	c-4.1,4.1,1.2,9.4-3,13.6l-0.4,0.4c-4.1,4.1-9.4-1.2-13.6,3c-4.1,4.1,1.2,9.4-3,13.6c-4.1,4.1-9.4-1.2-13.6,3
	c-4.1,4.1,1.2,9.4-3,13.6c-4.1,4.1-9.4-1.2-13.6,3c-4.1,4.1,1.2,9.4-3,13.6c-4.1,4.1-9.4-1.2-13.6,3c-4.1,4.1,1.2,9.4-3,13.6
	c-4.1,4.1-9.4-1.2-13.6,3c-4.1,4.1,1.2,9.4-3,13.6c-4.1,4.1-9.4-1.2-13.6,3c-4.1,4.1,1.2,9.4-3,13.6c-4.1,4.1-9.4-1.2-13.6,3
	c-4.1,4.1,1.2,9.4-3,13.6c-4.1,4.1-9.4-1.2-13.6,3c-4.1,4.1,1.2,9.4-3,13.6c-4.1,4.1-9.4-1.2-13.6,3c-4.1,4.1,1.2,9.4-3,13.6
	c-4.1,4.1-9.4-1.2-13.6,3c-4.1,4.1,1.2,9.4-3,13.6c-4.1,4.1-9.4-1.2-13.6,3c-4.1,4.1,1.2,9.4-3,13.6c-4.1,4.1-9.4-1.2-13.6,3
	c-4.1,4.1,1.2,9.4-3,13.6l0,0c-4.1,4.1-9.4-1.2-13.6,3c-4.1,4.1,1.2,9.4-3,13.6c-4.1,4.1-9.4-1.2-13.6,3c-4.1,4.1,1.2,9.4-3,13.6
	c-4.1,4.1-9.4-1.2-13.6,3c-4.1,4.1,1.2,9.4-3,13.6c-4.1,4.1-9.4-1.2-13.6,3c-4.1,4.1,1.2,9.4-3,13.6c-4.1,4.1-9.4-1.2-13.6,3
	c-4.1,4.1,1.2,9.4-3,13.6c-4.1,4.1-9.4-1.2-13.6,3c-4.1,4.1,1.2,9.4-3,13.6c-4.1,4.1-9.4-1.2-13.6,3c-4.1,4.1,1.2,9.4-3,13.6
	c-4.1,4.1-9.4-1.2-13.6,3c-4.1,4.1,1.2,9.4-3,13.6c-4.1,4.1-9.4-1.2-13.6,3c-4.1,4.1,1.2,9.4-3,13.6c-4.1,4.1-9.4-1.2-13.6,3
	c-4.1,4.1,1.2,9.4-3,13.6c-4.1,4.1-9.4-1.2-13.6,3c-4.1,4.1,1.2,9.4-3,13.6c-4.1,4.1-9.4-1.2-13.6,3c-4.1,4.1,1.2,9.4-3,13.6
	l-0.4,0.4c-4.1,4.1-9.4-1.2-13.6,3c-4.1,4.1,1.2,9.4-3,13.6c-4.1,4.1-9.4-1.2-13.6,3c-4.1,4.1,1.2,9.4-3,13.6
	c-4.1,4.1-9.4-1.2-13.6,3c-4.1,4.1,1.2,9.4-3,13.6c-4.1,4.1-9.4-1.2-13.6,3c-4.1,4.1,1.2,9.4-3,13.6c-4.1,4.1-9.4-1.2-13.6,3
	c-4.1,4.1,1.2,9.4-3,13.6c-4.1,4.1-9.4-1.2-13.6,3c-4.1,4.1,1.2,9.4-3,13.6c-4.1,4.1-9.4-1.2-13.6,3c-4.1,4.1,1.2,9.4-3,13.6
	c-4.1,4.1-9.4-1.2-13.6,3c-4.1,4.1,1.2,9.4-3,13.6c-4.1,4.1-9.4-1.2-13.6,3c-4.1,4.1,1.2,9.4-3,13.6c-4.1,4.1-9.4-1.2-13.6,3
	c-4.1,4.1,1.2,9.4-3,13.6c-4.1,4.1-9.4-1.2-13.6,3c-4.1,4.1,1.2,9.4-3,13.6c-4.1,4.1-9.4-1.2-13.6,3s1.2,9.4-3,13.6l0.3-0.3L800,800
	z"/>
</svg>
