<svg id="Layer_1" data-name="Layer 1" xmlns="http://www.w3.org/2000/svg" viewBox="0 0 800 800"><title>koro-pulse-brick-90</title><path d="M10.13.42c0,4.16-5.33,4.16-5.33,8.32s5.33,4.16,5.33,8.32S4.8,21.22,4.8,25.38s5.33,4.16,5.33,8.32S4.8,37.86,4.8,42s5.33,4.16,5.33,8.32S4.8,54.5,4.8,58.66s5.33,4.16,5.33,8.32S4.8,71.14,4.8,75.3s5.33,4.16,5.33,8.32S4.8,87.78,4.8,91.95s5.33,4.16,5.33,8.32-5.33,4.16-5.33,8.32,5.33,4.16,5.33,8.32-5.33,4.16-5.33,8.32,5.33,4.16,5.33,8.32S4.8,137.7,4.8,141.86s5.33,4.16,5.33,8.32S4.8,154.34,4.8,158.5s5.33,4.16,5.33,8.32S4.8,171,4.8,175.14s5.33,4.16,5.33,8.32-5.33,4.16-5.33,8.32,5.33,4.16,5.33,8.32v.42c0,4.16-5.33,4.16-5.33,8.32s5.33,4.16,5.33,8.32-5.33,4.16-5.33,8.32,5.33,4.16,5.33,8.32S4.8,238,4.8,242.12s5.33,4.16,5.33,8.32S4.8,254.6,4.8,258.76s5.33,4.16,5.33,8.32-5.33,4.16-5.33,8.32,5.33,4.16,5.33,8.32S4.8,287.89,4.8,292s5.33,4.16,5.33,8.32-5.33,4.16-5.33,8.32,5.33,4.16,5.33,8.32-5.33,4.16-5.33,8.32,5.33,4.16,5.33,8.32S4.8,337.8,4.8,342s5.33,4.16,5.33,8.32S4.8,354.44,4.8,358.6s5.33,4.16,5.33,8.32-5.33,4.16-5.33,8.32,5.33,4.16,5.33,8.32-5.33,4.16-5.33,8.32,5.33,4.16,5.33,8.32v0c0,4.16-5.33,4.16-5.33,8.32s5.33,4.16,5.33,8.32S4.8,421,4.8,425.18s5.33,4.16,5.33,8.32-5.33,4.16-5.33,8.32,5.33,4.16,5.33,8.32S4.8,454.3,4.8,458.46s5.33,4.16,5.33,8.32S4.8,470.94,4.8,475.1s5.33,4.16,5.33,8.32-5.33,4.16-5.33,8.32,5.33,4.16,5.33,8.32-5.33,4.16-5.33,8.32,5.33,4.16,5.33,8.32S4.8,520.86,4.8,525s5.33,4.16,5.33,8.32S4.8,537.5,4.8,541.66s5.33,4.16,5.33,8.32S4.8,554.14,4.8,558.3s5.33,4.16,5.33,8.32-5.33,4.16-5.33,8.32,5.33,4.16,5.33,8.32-5.33,4.16-5.33,8.32,5.33,4.16,5.33,8.32v.42c0,4.16-5.33,4.16-5.33,8.32s5.33,4.16,5.33,8.32-5.33,4.16-5.33,8.32,5.33,4.16,5.33,8.32-5.33,4.16-5.33,8.32,5.33,4.16,5.33,8.32S4.8,654.4,4.8,658.56s5.33,4.16,5.33,8.32S4.8,671,4.8,675.2s5.33,4.16,5.33,8.32-5.33,4.16-5.33,8.32,5.33,4.16,5.33,8.32-5.33,4.16-5.33,8.32,5.33,4.16,5.33,8.32S4.8,721,4.8,725.12s5.33,4.16,5.33,8.32S4.8,737.6,4.8,741.76s5.33,4.16,5.33,8.32S4.8,754.24,4.8,758.4s5.33,4.16,5.33,8.32S4.8,770.88,4.8,775s5.33,4.16,5.33,8.32-5.33,4.16-5.33,8.32,5.33,4.16,5.33,8.32v-.34H800V0H10.13Z" fill="#dc2415"/></svg>