<svg id="Layer_1" data-name="Layer 1" xmlns="http://www.w3.org/2000/svg" viewBox="0 0 800 800"><title>koro-storm-metro-45</title><path d="M400,400a11.83,11.83,0,0,1-12.77,2.62A11.83,11.83,0,0,1,371.85,418a11.83,11.83,0,0,1-15.38,15.38,11.83,11.83,0,0,1-15.38,15.38,11.83,11.83,0,0,1-15.38,15.38,11.83,11.83,0,0,1-15.38,15.38,11.83,11.83,0,0,1-15.38,15.38,11.83,11.83,0,0,1-15.38,15.38,11.83,11.83,0,0,1-15.38,15.38,11.83,11.83,0,0,1-15.38,15.38,11.83,11.83,0,0,1-15.38,15.38A11.83,11.83,0,0,1,218,571.85a11.83,11.83,0,0,1-15.38,15.38,11.83,11.83,0,0,1-15.38,15.38A11.83,11.83,0,0,1,171.85,618a11.83,11.83,0,0,1-15.38,15.38,11.83,11.83,0,0,1-15.38,15.38,11.83,11.83,0,0,1-15.38,15.38,11.83,11.83,0,0,1-15.38,15.38,11.83,11.83,0,0,1-15.38,15.38,11.83,11.83,0,0,1-15.38,15.38,11.83,11.83,0,0,1-15.38,15.38,11.83,11.83,0,0,1-15.38,15.38,11.83,11.83,0,0,1-15.38,15.38A11.83,11.83,0,0,1,18,771.85,11.83,11.83,0,0,1,2.62,787.23,11.83,11.83,0,0,1,0,800H800V0a11.83,11.83,0,0,1-12.77,2.62A11.83,11.83,0,0,1,771.85,18a11.83,11.83,0,0,1-15.38,15.38,11.83,11.83,0,0,1-15.38,15.38,11.83,11.83,0,0,1-15.38,15.38,11.83,11.83,0,0,1-15.38,15.38,11.83,11.83,0,0,1-15.38,15.38,11.83,11.83,0,0,1-15.38,15.38,11.83,11.83,0,0,1-15.38,15.38,11.83,11.83,0,0,1-15.38,15.38,11.83,11.83,0,0,1-15.38,15.38A11.83,11.83,0,0,1,618,171.85a11.83,11.83,0,0,1-15.38,15.38,11.83,11.83,0,0,1-15.38,15.38A11.83,11.83,0,0,1,571.85,218a11.83,11.83,0,0,1-15.38,15.38,11.83,11.83,0,0,1-15.38,15.38,11.83,11.83,0,0,1-15.38,15.38,11.83,11.83,0,0,1-15.38,15.38,11.83,11.83,0,0,1-15.38,15.38,11.83,11.83,0,0,1-15.38,15.38,11.83,11.83,0,0,1-15.38,15.38,11.83,11.83,0,0,1-15.38,15.38,11.83,11.83,0,0,1-15.38,15.38A11.83,11.83,0,0,1,418,371.85a11.83,11.83,0,0,1-15.38,15.38A11.83,11.83,0,0,1,400,400Z" fill="#eb6608"/></svg>