<svg id="Layer_1" data-name="Layer 1" xmlns="http://www.w3.org/2000/svg" viewBox="0 0 800 800"><title>koro-storm-metro-145</title><path d="M400,400a11.83,11.83,0,0,1,2.62,12.77A11.83,11.83,0,0,1,418,428.15a11.83,11.83,0,0,1,15.38,15.38,11.83,11.83,0,0,1,15.38,15.38,11.83,11.83,0,0,1,15.38,15.38,11.83,11.83,0,0,1,15.38,15.38,11.83,11.83,0,0,1,15.38,15.38,11.83,11.83,0,0,1,15.38,15.38,11.83,11.83,0,0,1,15.38,15.38,11.83,11.83,0,0,1,15.38,15.38,11.83,11.83,0,0,1,15.38,15.38A11.83,11.83,0,0,1,571.85,582a11.83,11.83,0,0,1,15.38,15.38,11.83,11.83,0,0,1,15.38,15.38A11.83,11.83,0,0,1,618,628.15a11.83,11.83,0,0,1,15.38,15.38,11.83,11.83,0,0,1,15.38,15.38,11.83,11.83,0,0,1,15.38,15.38,11.83,11.83,0,0,1,15.38,15.38,11.83,11.83,0,0,1,15.38,15.38,11.83,11.83,0,0,1,15.38,15.38,11.83,11.83,0,0,1,15.38,15.38,11.83,11.83,0,0,1,15.38,15.38,11.83,11.83,0,0,1,15.38,15.38A11.83,11.83,0,0,1,771.85,782a11.83,11.83,0,0,1,15.38,15.38A11.83,11.83,0,0,1,800,800V0H0A11.83,11.83,0,0,1,2.62,12.77,11.83,11.83,0,0,1,18,28.15,11.83,11.83,0,0,1,33.39,43.54,11.83,11.83,0,0,1,48.77,58.92,11.83,11.83,0,0,1,64.15,74.31,11.83,11.83,0,0,1,79.54,89.69a11.83,11.83,0,0,1,15.38,15.38,11.83,11.83,0,0,1,15.38,15.38,11.83,11.83,0,0,1,15.38,15.38,11.83,11.83,0,0,1,15.38,15.38,11.83,11.83,0,0,1,15.38,15.38A11.83,11.83,0,0,1,171.85,182a11.83,11.83,0,0,1,15.38,15.38,11.83,11.83,0,0,1,15.38,15.38A11.83,11.83,0,0,1,218,228.15a11.83,11.83,0,0,1,15.38,15.38,11.83,11.83,0,0,1,15.38,15.38,11.83,11.83,0,0,1,15.38,15.38,11.83,11.83,0,0,1,15.38,15.38,11.83,11.83,0,0,1,15.38,15.38,11.83,11.83,0,0,1,15.38,15.38,11.83,11.83,0,0,1,15.38,15.38,11.83,11.83,0,0,1,15.38,15.38,11.83,11.83,0,0,1,15.38,15.38A11.83,11.83,0,0,1,371.85,382a11.83,11.83,0,0,1,15.38,15.38A11.83,11.83,0,0,1,400,400Z" fill="#eb6608"/></svg>