<svg id="Layer_1" data-name="Layer 1" xmlns="http://www.w3.org/2000/svg" viewBox="0 0 800 800"><title>koro-storm-metro-90</title><path d="M10.08,402.5A8.37,8.37,0,0,1,5,410.19a8.37,8.37,0,0,1,0,15.38A8.37,8.37,0,0,1,5,441a8.37,8.37,0,0,1,0,15.38,8.37,8.37,0,0,1,0,15.38,8.37,8.37,0,0,1,0,15.38A8.37,8.37,0,0,1,5,502.5a8.37,8.37,0,0,1,0,15.38,8.37,8.37,0,0,1,0,15.38,8.37,8.37,0,0,1,0,15.38A8.37,8.37,0,0,1,5,564a8.37,8.37,0,0,1,0,15.38,8.37,8.37,0,0,1,0,15.38,8.37,8.37,0,0,1,0,15.38,8.37,8.37,0,0,1,0,15.38A8.37,8.37,0,0,1,5,641a8.37,8.37,0,0,1,0,15.38,8.37,8.37,0,0,1,0,15.38,8.37,8.37,0,0,1,0,15.38A8.37,8.37,0,0,1,5,702.5a8.37,8.37,0,0,1,0,15.38,8.37,8.37,0,0,1,0,15.38,8.37,8.37,0,0,1,0,15.38A8.37,8.37,0,0,1,5,764a8.37,8.37,0,0,1,0,15.38,8.37,8.37,0,0,1,0,15.38,8.37,8.37,0,0,1,5.08,7.69H800v-200h0v-200" fill="#eb6608"/><path d="M800,402.5v-200h0V2.52L10.08,2.5A8.37,8.37,0,0,1,5,10.19,8.37,8.37,0,0,1,5,25.58,8.37,8.37,0,0,1,5,41,8.37,8.37,0,0,1,5,56.35,8.37,8.37,0,0,1,5,71.73,8.37,8.37,0,0,1,5,87.12,8.37,8.37,0,0,1,5,102.5a8.37,8.37,0,0,1,0,15.38,8.37,8.37,0,0,1,0,15.38,8.37,8.37,0,0,1,0,15.38A8.37,8.37,0,0,1,5,164a8.37,8.37,0,0,1,0,15.38,8.37,8.37,0,0,1,0,15.38,8.37,8.37,0,0,1,0,15.38,8.37,8.37,0,0,1,0,15.38A8.37,8.37,0,0,1,5,241a8.37,8.37,0,0,1,0,15.38,8.37,8.37,0,0,1,0,15.38,8.37,8.37,0,0,1,0,15.38A8.37,8.37,0,0,1,5,302.5a8.37,8.37,0,0,1,0,15.38,8.37,8.37,0,0,1,0,15.38,8.37,8.37,0,0,1,0,15.38A8.37,8.37,0,0,1,5,364a8.37,8.37,0,0,1,0,15.38,8.37,8.37,0,0,1,0,15.38,8.37,8.37,0,0,1,5.08,7.69" fill="#eb6608"/></svg>