<svg id="Layer_1" data-name="Layer 1" xmlns="http://www.w3.org/2000/svg" viewBox="0 0 800 800"><title>koro-pulse-brick-180</title><path d="M.42,789.87c4.16,0,4.16,5.33,8.32,5.33s4.16-5.33,8.32-5.33,4.16,5.33,8.32,5.33,4.16-5.33,8.32-5.33,4.16,5.33,8.32,5.33,4.16-5.33,8.32-5.33,4.16,5.33,8.32,5.33,4.16-5.33,8.32-5.33,4.16,5.33,8.32,5.33,4.16-5.33,8.32-5.33,4.16,5.33,8.32,5.33,4.16-5.33,8.32-5.33,4.16,5.33,8.32,5.33,4.16-5.33,8.32-5.33,4.16,5.33,8.32,5.33,4.16-5.33,8.32-5.33,4.16,5.33,8.32,5.33,4.16-5.33,8.32-5.33,4.16,5.33,8.32,5.33,4.16-5.33,8.32-5.33,4.16,5.33,8.32,5.33,4.16-5.33,8.32-5.33,4.16,5.33,8.32,5.33,4.16-5.33,8.32-5.33h.42c4.16,0,4.16,5.33,8.32,5.33s4.16-5.33,8.32-5.33,4.16,5.33,8.32,5.33,4.16-5.33,8.32-5.33,4.16,5.33,8.32,5.33,4.16-5.33,8.32-5.33,4.16,5.33,8.32,5.33,4.16-5.33,8.32-5.33,4.16,5.33,8.32,5.33,4.16-5.33,8.32-5.33,4.16,5.33,8.32,5.33,4.16-5.33,8.32-5.33,4.16,5.33,8.32,5.33,4.16-5.33,8.32-5.33,4.16,5.33,8.32,5.33,4.16-5.33,8.32-5.33,4.16,5.33,8.32,5.33,4.16-5.33,8.32-5.33,4.16,5.33,8.32,5.33,4.16-5.33,8.32-5.33,4.16,5.33,8.32,5.33,4.16-5.33,8.32-5.33,4.16,5.33,8.32,5.33,4.16-5.33,8.32-5.33h0c4.16,0,4.16,5.33,8.32,5.33s4.16-5.33,8.32-5.33,4.16,5.33,8.32,5.33,4.16-5.33,8.32-5.33,4.16,5.33,8.32,5.33,4.16-5.33,8.32-5.33,4.16,5.33,8.32,5.33,4.16-5.33,8.32-5.33,4.16,5.33,8.32,5.33,4.16-5.33,8.32-5.33,4.16,5.33,8.32,5.33,4.16-5.33,8.32-5.33,4.16,5.33,8.32,5.33,4.16-5.33,8.32-5.33,4.16,5.33,8.32,5.33,4.16-5.33,8.32-5.33,4.16,5.33,8.32,5.33,4.16-5.33,8.32-5.33,4.16,5.33,8.32,5.33,4.16-5.33,8.32-5.33,4.16,5.33,8.32,5.33,4.16-5.33,8.32-5.33,4.16,5.33,8.32,5.33,4.16-5.33,8.32-5.33h.42c4.16,0,4.16,5.33,8.32,5.33s4.16-5.33,8.32-5.33,4.16,5.33,8.32,5.33,4.16-5.33,8.32-5.33,4.16,5.33,8.32,5.33,4.16-5.33,8.32-5.33,4.16,5.33,8.32,5.33,4.16-5.33,8.32-5.33,4.16,5.33,8.32,5.33,4.16-5.33,8.32-5.33,4.16,5.33,8.32,5.33,4.16-5.33,8.32-5.33,4.16,5.33,8.32,5.33,4.16-5.33,8.32-5.33,4.16,5.33,8.32,5.33,4.16-5.33,8.32-5.33,4.16,5.33,8.32,5.33,4.16-5.33,8.32-5.33,4.16,5.33,8.32,5.33,4.16-5.33,8.32-5.33,4.16,5.33,8.32,5.33,4.16-5.33,8.32-5.33,4.16,5.33,8.32,5.33,4.16-5.33,8.32-5.33h-.34V0H0V789.87Z" fill="#dc2415"/></svg>