<svg id="Layer_1" data-name="Layer 1" xmlns="http://www.w3.org/2000/svg" viewBox="0 0 800 800"><title>koro-storm-metro-180</title><path d="M400,789.92a8.37,8.37,0,0,1,7.69,5.08,8.37,8.37,0,0,1,15.38,0,8.37,8.37,0,0,1,15.38,0,8.37,8.37,0,0,1,15.38,0,8.37,8.37,0,0,1,15.38,0,8.37,8.37,0,0,1,15.38,0A8.37,8.37,0,0,1,500,795a8.37,8.37,0,0,1,15.38,0,8.37,8.37,0,0,1,15.38,0,8.37,8.37,0,0,1,15.38,0,8.37,8.37,0,0,1,15.38,0,8.37,8.37,0,0,1,15.38,0,8.37,8.37,0,0,1,15.38,0,8.37,8.37,0,0,1,15.38,0,8.37,8.37,0,0,1,15.38,0,8.37,8.37,0,0,1,15.38,0,8.37,8.37,0,0,1,15.38,0,8.37,8.37,0,0,1,15.38,0,8.37,8.37,0,0,1,15.38,0A8.37,8.37,0,0,1,700,795a8.37,8.37,0,0,1,15.38,0,8.37,8.37,0,0,1,15.38,0,8.37,8.37,0,0,1,15.38,0,8.37,8.37,0,0,1,15.38,0,8.37,8.37,0,0,1,15.38,0,8.37,8.37,0,0,1,15.38,0,8.37,8.37,0,0,1,7.69-5.08V0H400" fill="#eb6608"/><path d="M400,0H0L0,789.92A8.37,8.37,0,0,1,7.69,795a8.37,8.37,0,0,1,15.38,0,8.37,8.37,0,0,1,15.38,0,8.37,8.37,0,0,1,15.38,0,8.37,8.37,0,0,1,15.38,0,8.37,8.37,0,0,1,15.38,0A8.37,8.37,0,0,1,100,795a8.37,8.37,0,0,1,15.38,0,8.37,8.37,0,0,1,15.38,0,8.37,8.37,0,0,1,15.38,0,8.37,8.37,0,0,1,15.38,0,8.37,8.37,0,0,1,15.38,0,8.37,8.37,0,0,1,15.38,0,8.37,8.37,0,0,1,15.38,0,8.37,8.37,0,0,1,15.38,0,8.37,8.37,0,0,1,15.38,0,8.37,8.37,0,0,1,15.38,0,8.37,8.37,0,0,1,15.38,0,8.37,8.37,0,0,1,15.38,0A8.37,8.37,0,0,1,300,795a8.37,8.37,0,0,1,15.38,0,8.37,8.37,0,0,1,15.38,0,8.37,8.37,0,0,1,15.38,0,8.37,8.37,0,0,1,15.38,0,8.37,8.37,0,0,1,15.38,0,8.37,8.37,0,0,1,15.38,0,8.37,8.37,0,0,1,7.69-5.08" fill="#eb6608"/></svg>