<svg id="Layer_1" data-name="Layer 1" xmlns="http://www.w3.org/2000/svg" viewBox="0 0 800 800"><title>koro-storm-metro-0</title><path d="M400,10.08A8.37,8.37,0,0,1,392.31,5a8.37,8.37,0,0,1-15.38,0,8.37,8.37,0,0,1-15.38,0,8.37,8.37,0,0,1-15.38,0,8.37,8.37,0,0,1-15.38,0,8.37,8.37,0,0,1-15.38,0A8.37,8.37,0,0,1,300,5a8.37,8.37,0,0,1-15.38,0,8.37,8.37,0,0,1-15.38,0,8.37,8.37,0,0,1-15.38,0,8.37,8.37,0,0,1-15.38,0,8.37,8.37,0,0,1-15.38,0,8.37,8.37,0,0,1-15.38,0,8.37,8.37,0,0,1-15.38,0,8.37,8.37,0,0,1-15.38,0,8.37,8.37,0,0,1-15.38,0,8.37,8.37,0,0,1-15.38,0,8.37,8.37,0,0,1-15.38,0,8.37,8.37,0,0,1-15.38,0A8.37,8.37,0,0,1,100,5,8.37,8.37,0,0,1,84.62,5,8.37,8.37,0,0,1,69.23,5,8.37,8.37,0,0,1,53.85,5,8.37,8.37,0,0,1,38.46,5,8.37,8.37,0,0,1,23.08,5,8.37,8.37,0,0,1,7.69,5,8.37,8.37,0,0,1,0,10.08V800H400" fill="#eb6608"/><path d="M400,800H800l0-789.92A8.37,8.37,0,0,1,792.31,5a8.37,8.37,0,0,1-15.38,0,8.37,8.37,0,0,1-15.38,0,8.37,8.37,0,0,1-15.38,0,8.37,8.37,0,0,1-15.38,0,8.37,8.37,0,0,1-15.38,0A8.37,8.37,0,0,1,700,5a8.37,8.37,0,0,1-15.38,0,8.37,8.37,0,0,1-15.38,0,8.37,8.37,0,0,1-15.38,0,8.37,8.37,0,0,1-15.38,0,8.37,8.37,0,0,1-15.38,0,8.37,8.37,0,0,1-15.38,0,8.37,8.37,0,0,1-15.38,0,8.37,8.37,0,0,1-15.38,0,8.37,8.37,0,0,1-15.38,0,8.37,8.37,0,0,1-15.38,0,8.37,8.37,0,0,1-15.38,0,8.37,8.37,0,0,1-15.38,0A8.37,8.37,0,0,1,500,5a8.37,8.37,0,0,1-15.38,0,8.37,8.37,0,0,1-15.38,0,8.37,8.37,0,0,1-15.38,0,8.37,8.37,0,0,1-15.38,0,8.37,8.37,0,0,1-15.38,0,8.37,8.37,0,0,1-15.38,0A8.37,8.37,0,0,1,400,10.08" fill="#eb6608"/></svg>