<svg id="Layer_1" data-name="Layer 1" xmlns="http://www.w3.org/2000/svg" viewBox="0 0 800 800"><title>koro-pulse-brick-45</title><path d="M.34,799.66,0,800c4.16-4.16-1.17-9.49,3-13.65s9.49,1.17,13.65-3-1.17-9.49,3-13.65,9.49,1.17,13.65-3-1.17-9.49,3-13.65,9.49,1.17,13.65-3-1.17-9.49,3-13.65,9.49,1.17,13.65-3-1.17-9.49,3-13.65S79,721,83.2,716.8s-1.17-9.49,3-13.65,9.49,1.17,13.65-3-1.17-9.49,3-13.65,9.49,1.17,13.65-3-1.17-9.49,3-13.65,9.49,1.17,13.65-3-1.17-9.49,3-13.65,9.49,1.17,13.65-3-1.17-9.49,3-13.65,9.49,1.17,13.65-3-1.17-9.49,3-13.65,9.49,1.17,13.65-3-1.17-9.49,3-13.65,9.49,1.17,13.65-3l.42-.42c4.16-4.16-1.17-9.49,3-13.65s9.49,1.17,13.65-3-1.17-9.49,3-13.65,9.49,1.17,13.65-3-1.17-9.49,3-13.65,9.49,1.17,13.65-3-1.17-9.49,3-13.65,9.49,1.17,13.65-3-1.17-9.49,3-13.65,9.49,1.17,13.65-3-1.17-9.49,3-13.65,9.49,1.17,13.64-3-1.17-9.49,3-13.65,9.49,1.17,13.65-3-1.17-9.49,3-13.65,9.49,1.17,13.65-3-1.17-9.49,3-13.65,9.49,1.17,13.65-3-1.17-9.49,3-13.65,9.49,1.17,13.65-3-1.17-9.49,3-13.65,9.49,1.17,13.65-3-1.17-9.49,3-13.65,9.49,1.17,13.65-3l0,0c4.16-4.16-1.17-9.49,3-13.65s9.49,1.17,13.65-3-1.17-9.49,3-13.65,9.49,1.17,13.65-3-1.17-9.49,3-13.65,9.49,1.17,13.65-3-1.17-9.49,3-13.65,9.49,1.17,13.65-3-1.17-9.49,3-13.65,9.49,1.17,13.65-3-1.17-9.49,3-13.65,9.49,1.17,13.65-3-1.17-9.49,3-13.65,9.49,1.17,13.65-3-1.17-9.49,3-13.65,9.49,1.17,13.65-3-1.17-9.49,3-13.65,9.49,1.17,13.65-3-1.17-9.49,3-13.65,9.49,1.17,13.65-3-1.17-9.49,3-13.65,9.49,1.17,13.65-3-1.17-9.49,3-13.65,9.49,1.17,13.65-3l.42-.42c4.16-4.16-1.17-9.49,3-13.65s9.49,1.17,13.65-3-1.17-9.49,3-13.65,9.49,1.17,13.65-3-1.17-9.49,3-13.65,9.49,1.17,13.65-3-1.17-9.49,3-13.65,9.49,1.17,13.65-3-1.17-9.49,3-13.65,9.49,1.17,13.65-3-1.17-9.49,3-13.65,9.49,1.17,13.64-3-1.17-9.49,3-13.65,9.49,1.17,13.65-3-1.17-9.49,3-13.65,9.49,1.17,13.65-3-1.17-9.49,3-13.65,9.49,1.17,13.65-3-1.17-9.49,3-13.65,9.49,1.17,13.65-3-1.17-9.49,3-13.65,9.49,1.17,13.65-3-1.17-9.49,3-13.65,9.49,1.17,13.65-3L800,0V800Z" fill="#dc2415"/></svg>